<?xml version="1.0" encoding="UTF-8"?>
<!DOCTYPE svg PUBLIC "-//W3C//DTD SVG 1.1//EN" "http://www.w3.org/Graphics/SVG/1.1/DTD/svg11.dtd">
<svg xmlns="http://www.w3.org/2000/svg" version="1.1" width="400px" height="300px" style="shape-rendering:geometricPrecision; text-rendering:geometricPrecision; image-rendering:optimizeQuality; fill-rule:evenodd; clip-rule:evenodd" xmlns:xlink="http://www.w3.org/1999/xlink">
<g><path style="opacity:0.008" fill="#000000" d="M 79.5,54.5 C 81.6626,55.3623 83.6626,55.6957 85.5,55.5C 84.5,55.8333 83.5,56.1667 82.5,56.5C 80.9704,56.3601 79.9704,55.6935 79.5,54.5 Z"/></g>
<g><path style="opacity:0.004" fill="#000000" d="M 87.5,55.5 C 167.999,54.3344 248.666,54.1677 329.5,55C 248.834,55.5 168.167,55.6667 87.5,55.5 Z"/></g>
<g><path style="opacity:0.004" fill="#000000" d="M 333.5,55.5 C 332.761,55.631 332.094,55.4643 331.5,55C 332.437,54.3083 333.103,54.475 333.5,55.5 Z"/></g>
<g><path style="opacity:0.004" fill="#000000" d="M 333.5,55.5 C 334.239,55.369 334.906,55.5357 335.5,56C 334.563,56.6917 333.897,56.525 333.5,55.5 Z"/></g>
<g><path style="opacity:0.006" fill="#000000" d="M 327.5,57.5 C 327.917,56.8761 328.584,56.5427 329.5,56.5C 331.5,57 333.5,57.5 335.5,58C 332.779,58.6015 330.113,58.4349 327.5,57.5 Z"/></g>
<g><path style="opacity:0.004" fill="#000000" d="M 63.5,62.5 C 64.8333,63.1667 64.8333,63.1667 63.5,62.5 Z"/></g>
<g><path style="opacity:0.012" fill="#000000" d="M 346.5,65.5 C 346.5,64.8333 346.167,64.5 345.5,64.5C 345.783,63.7109 346.283,63.0442 347,62.5C 347.74,63.7494 347.573,64.7494 346.5,65.5 Z"/></g>
<g><path style="opacity:0.008" fill="#000000" d="M 354.5,62.5 C 355.646,64.475 357.313,65.975 359.5,67C 356.162,67.5003 354.495,66.0003 354.5,62.5 Z"/></g>
<g><path style="opacity:0.017" fill="#000000" d="M 357.5,62.5 C 358.289,62.7828 358.956,63.2828 359.5,64C 358.184,64.5281 357.517,64.0281 357.5,62.5 Z"/></g>
<g><path style="opacity:0.016" fill="#000000" d="M 67.5,65.5 C 66.2267,64.9232 66.2267,64.2565 67.5,63.5C 68.463,63.9698 68.463,64.6365 67.5,65.5 Z"/></g>
<g><path style="opacity:1" fill="#060404" d="M 327.5,57.5 C 247.668,58.333 167.668,58.833 87.5,59C 168.167,59.3333 248.833,59.6667 329.5,60C 326.937,60.763 326.937,61.263 329.5,61.5C 331.104,61.0609 332.604,60.3943 334,59.5C 335.762,59.9444 335.595,60.4444 333.5,61C 334.416,61.2784 335.082,61.7784 335.5,62.5C 334.316,63.6879 334.316,64.8545 335.5,66C 315.996,66.1682 296.662,66.6682 277.5,67.5C 277.5,92.8333 277.5,118.167 277.5,143.5C 277.5,143.833 277.5,144.167 277.5,144.5C 278.609,145.29 279.942,145.79 281.5,146C 280.833,146.333 280.167,146.667 279.5,147C 280.833,147.167 282.167,147.333 283.5,147.5C 289.111,147.562 294.778,147.229 300.5,146.5C 303.179,146.936 305.845,147.436 308.5,148C 298.5,148.333 288.5,148.667 278.5,149C 277.956,149.717 277.289,150.217 276.5,150.5C 275.5,150.5 274.5,150.5 273.5,150.5C 265.737,149.958 257.904,148.958 250,147.5C 248.18,148.484 246.68,148.317 245.5,147C 249.535,146.303 253.535,146.47 257.5,147.5C 262.36,145.847 267.36,145.18 272.5,145.5C 272.737,144.209 272.404,143.209 271.5,142.5C 264.83,117.159 257.163,92.1587 248.5,67.5C 234.167,67.5 219.833,67.5 205.5,67.5C 197.896,91.7192 190.563,116.053 183.5,140.5C 182.566,141.568 182.232,142.901 182.5,144.5C 190.657,145.329 198.99,145.829 207.5,146C 200.167,146.333 192.833,146.667 185.5,147C 183.685,147.757 182.019,148.59 180.5,149.5C 166.829,149.667 153.163,149.5 139.5,149C 143.541,148.827 147.541,148.327 151.5,147.5C 149.784,147.003 148.117,146.669 146.5,146.5C 150.982,145.833 155.316,145.166 159.5,144.5C 159.5,137.5 159.5,130.5 159.5,123.5C 159.5,115.5 159.5,107.5 159.5,99.5C 159.5,97.1667 159.5,94.8333 159.5,92.5C 170.5,92.5 181.5,92.5 192.5,92.5C 193.493,84.0161 193.826,75.3494 193.5,66.5C 156.33,66.1682 119.33,66.5015 82.5,67.5C 67.6383,70.3638 60.6383,79.3638 61.5,94.5C 62.1874,99.9325 61.0207,100.599 58,96.5C 57.3292,97.2524 56.4959,97.5858 55.5,97.5C 55.5,97.1667 55.5,96.8333 55.5,96.5C 56.0313,90.5142 57.0313,84.5142 58.5,78.5C 58.1583,77.6618 57.4916,77.3284 56.5,77.5C 57.1098,76.609 57.4431,75.609 57.5,74.5C 58.4508,77.0452 59.4508,77.0452 60.5,74.5C 57.6717,70.8019 58.005,70.1352 61.5,72.5C 62.8543,71.1457 64.1877,69.8123 65.5,68.5C 68.0069,68.3678 68.6736,67.3678 67.5,65.5C 68.4959,65.4142 69.3292,65.7476 70,66.5C 71.1192,65.4479 71.6192,64.2812 71.5,63C 73.4406,62.2571 75.2739,62.4238 77,63.5C 79.0715,62.4752 81.2381,61.6419 83.5,61C 82.2068,60.51 80.8734,60.3433 79.5,60.5C 79.5,59.5 79.5,58.5 79.5,57.5C 162.167,57.5 244.833,57.5 327.5,57.5 Z"/></g>
<g><path style="opacity:0.013" fill="#000000" d="M 65.5,68.5 C 62.9991,68.4891 62.8324,67.8224 65,66.5C 65.4643,67.0944 65.631,67.7611 65.5,68.5 Z"/></g>
<g><path style="opacity:1" fill="#65591e" d="M 82.5,67.5 C 119.33,66.5015 156.33,66.1682 193.5,66.5C 193.826,75.3494 193.493,84.0161 192.5,92.5C 192.5,92.1667 192.5,91.8333 192.5,91.5C 192.5,83.5 192.5,75.5 192.5,67.5C 155.833,67.5 119.167,67.5 82.5,67.5 Z"/></g>
<g><path style="opacity:0.012" fill="#312f11" d="M 355.5,70.5 C 355.167,70.5 354.833,70.5 354.5,70.5C 354.306,68.0882 352.973,67.0882 350.5,67.5C 350.591,65.3023 349.925,64.9689 348.5,66.5C 348.5,65.1667 348.5,63.8333 348.5,62.5C 350.288,62.2148 351.955,62.5481 353.5,63.5C 352.833,64.1667 352.167,64.8333 351.5,65.5C 354.342,66.0045 355.675,67.6711 355.5,70.5 Z"/></g>
<g><path style="opacity:0.004" fill="#000000" d="M 55.5,70.5 C 56.8333,71.1667 56.8333,71.1667 55.5,70.5 Z"/></g>
<g><path style="opacity:0.016" fill="#7d1e8b" d="M 359.5,77.5 C 358.71,76.3915 358.21,75.0581 358,73.5C 356.271,73.0257 355.105,72.0257 354.5,70.5C 354.833,70.5 355.167,70.5 355.5,70.5C 356.735,70.2786 357.735,69.6119 358.5,68.5C 359.484,71.4281 359.817,74.4281 359.5,77.5 Z"/></g>
<g><path style="opacity:0.016" fill="#000000" d="M 57.5,74.5 C 55.1081,75.3678 54.9414,74.7012 57,72.5C 57.4643,73.0944 57.631,73.7611 57.5,74.5 Z"/></g>
<g><path style="opacity:1" fill="#db8d30" d="M 335.5,70.5 C 338.352,71.2583 341.019,71.2583 343.5,70.5C 354.607,76.3764 358.94,85.3764 356.5,97.5C 356.5,96.5 356.5,95.5 356.5,94.5C 354.408,94.4386 352.908,93.4386 352,91.5C 351.692,92.3081 351.192,92.9747 350.5,93.5C 348.382,92.0541 346.049,91.3874 343.5,91.5C 343.5,89.8333 343.5,88.1667 343.5,86.5C 339.445,86.1758 335.445,86.5091 331.5,87.5C 330.147,88.5237 329.48,89.857 329.5,91.5C 328.711,91.2172 328.044,90.7172 327.5,90C 321.175,89.5005 314.842,89.3338 308.5,89.5C 308.5,92.5 308.5,95.5 308.5,98.5C 314.833,98.5 321.167,98.5 327.5,98.5C 321.355,99.4902 315.022,99.8235 308.5,99.5C 307.5,99.5 306.5,99.5 305.5,99.5C 305.176,95.4454 305.509,91.4454 306.5,87.5C 313.736,89.6298 320.07,88.1298 325.5,83C 324.069,82.5348 322.903,81.7014 322,80.5C 321.586,80.9574 321.086,81.2907 320.5,81.5C 319.088,80.1936 317.421,79.3603 315.5,79C 318.167,78.6667 320.833,78.3333 323.5,78C 313.878,77.8409 304.544,76.1743 295.5,73C 294.167,72.3333 294.167,71.6667 295.5,71C 308.829,70.5001 322.163,70.3334 335.5,70.5 Z"/></g>
<g><path style="opacity:0.02" fill="#000000" d="M 360.5,79.5 C 361.623,78.2426 362.289,78.5759 362.5,80.5C 361.833,80.1667 361.167,79.8333 360.5,79.5 Z"/></g>
<g><path style="opacity:0.008" fill="#000000" d="M 365.5,80.5 C 364.833,79.1667 364.833,79.1667 365.5,80.5 Z"/></g>
<g><path style="opacity:1" fill="#c7692f" d="M 248.5,67.5 C 257.163,92.1587 264.83,117.159 271.5,142.5C 270.571,141.064 269.405,139.731 268,138.5C 266.459,132.024 264.292,126.024 261.5,120.5C 259.773,112.247 257.44,104.247 254.5,96.5C 253.517,91.046 252.017,85.7127 250,80.5C 248.925,76.23 248.425,71.8967 248.5,67.5 Z"/></g>
<g><path style="opacity:0.005" fill="#000000" d="M 362.5,80.5 C 363.167,80.5 363.833,80.5 364.5,80.5C 364.214,82.9327 363.548,82.9327 362.5,80.5 Z"/></g>
<g><path style="opacity:0.004" fill="#000000" d="M 365.5,80.5 C 366.833,81.1667 366.833,81.1667 365.5,80.5 Z"/></g>
<g><path style="opacity:1" fill="#e9b531" d="M 335.5,70.5 C 322.163,70.3334 308.829,70.5001 295.5,71C 294.167,71.6667 294.167,72.3333 295.5,73C 304.544,76.1743 313.878,77.8409 323.5,78C 320.833,78.3333 318.167,78.6667 315.5,79C 317.421,79.3603 319.088,80.1936 320.5,81.5C 321.086,81.2907 321.586,80.9574 322,80.5C 322.903,81.7014 324.069,82.5348 325.5,83C 320.07,88.1298 313.736,89.6298 306.5,87.5C 305.509,91.4454 305.176,95.4454 305.5,99.5C 306.5,99.5 307.5,99.5 308.5,99.5C 308.225,101.758 307.225,102.092 305.5,100.5C 304.513,97.2317 304.18,93.8984 304.5,90.5C 300.456,90.3097 296.456,89.8097 292.5,89C 290.833,88.1667 289.167,87.3333 287.5,86.5C 286.852,84.8508 285.852,83.5175 284.5,82.5C 283.199,88.1117 281.699,87.7783 280,81.5C 279.501,77.5138 279.334,73.5138 279.5,69.5C 298.341,69.1698 317.007,69.5031 335.5,70.5 Z"/></g>
<g><path style="opacity:0.006" fill="#000000" d="M 366.5,82.5 C 367.629,84.6282 367.796,86.9615 367,89.5C 366.667,88.1667 366.333,86.8333 366,85.5C 365.444,87.5951 364.944,87.7618 364.5,86C 364.978,84.6974 365.645,83.5307 366.5,82.5 Z"/></g>
<g><path style="opacity:1" fill="#f2cc32" d="M 82.5,67.5 C 119.167,67.5 155.833,67.5 192.5,67.5C 192.5,75.5 192.5,83.5 192.5,91.5C 181.086,89.5543 169.419,88.8876 157.5,89.5C 157.5,91.8333 157.5,94.1667 157.5,96.5C 156.698,95.0484 156.198,93.3817 156,91.5C 155.439,90.9781 154.772,90.6448 154,90.5C 147.469,90.4563 140.969,90.7896 134.5,91.5C 131.908,89.8233 128.908,88.6566 125.5,88C 120.778,88.0147 116.111,87.8481 111.5,87.5C 114.086,86.52 116.753,86.1866 119.5,86.5C 119.5,85.5 119.5,84.5 119.5,83.5C 130.098,81.7522 140.598,79.7522 151,77.5C 151.414,77.9574 151.914,78.2907 152.5,78.5C 155.635,76.2104 158.968,75.5437 162.5,76.5C 171.223,73.4695 180.223,71.8028 189.5,71.5C 154.014,69.674 118.681,69.3407 83.5,70.5C 81.4727,70.3379 79.4727,70.5045 77.5,71C 71.8183,73.5125 67.8183,77.6791 65.5,83.5C 63.7173,90.3324 64.7173,96.8324 68.5,103C 67.552,103.483 66.552,103.649 65.5,103.5C 63.8506,100.544 62.5173,97.5436 61.5,94.5C 60.6383,79.3638 67.6383,70.3638 82.5,67.5 Z"/></g>
<g><path style="opacity:1" fill="#da7d2d" d="M 83.5,70.5 C 95.5,70.5 107.5,70.5 119.5,70.5C 114.97,72.0353 110.304,73.8686 105.5,76C 102.183,76.4983 98.8499,76.665 95.5,76.5C 95.762,77.9778 95.4287,79.3112 94.5,80.5C 90.6199,80.71 88.9532,82.71 89.5,86.5C 87.5,86.5 85.5,86.5 83.5,86.5C 83.67,87.8221 83.3366,88.9887 82.5,90C 78.822,91.4606 75.1554,92.7939 71.5,94C 72.8333,94.3333 74.1667,94.6667 75.5,95C 73.9751,96.0086 72.3084,96.5086 70.5,96.5C 70.5,94.8333 70.5,93.1667 70.5,91.5C 68.8333,91.5 67.1667,91.5 65.5,91.5C 65.5,88.8333 65.5,86.1667 65.5,83.5C 67.8183,77.6791 71.8183,73.5125 77.5,71C 79.4727,70.5045 81.4727,70.3379 83.5,70.5 Z"/></g>
<g><path style="opacity:1" fill="#e6af31" d="M 83.5,70.5 C 118.681,69.3407 154.014,69.674 189.5,71.5C 180.223,71.8028 171.223,73.4695 162.5,76.5C 158.968,75.5437 155.635,76.2104 152.5,78.5C 151.914,78.2907 151.414,77.9574 151,77.5C 140.598,79.7522 130.098,81.7522 119.5,83.5C 119.5,84.5 119.5,85.5 119.5,86.5C 116.753,86.1866 114.086,86.52 111.5,87.5C 116.111,87.8481 120.778,88.0147 125.5,88C 128.908,88.6566 131.908,89.8233 134.5,91.5C 133.508,91.3284 132.842,91.6618 132.5,92.5C 120.167,92.5 107.833,92.5 95.5,92.5C 95.9528,91.5416 96.6195,90.7083 97.5,90C 96.6919,89.6924 96.0253,89.1924 95.5,88.5C 97.396,87.5344 99.396,87.2011 101.5,87.5C 101.141,85.2341 101.808,83.4007 103.5,82C 108.775,80.6813 114.108,79.6813 119.5,79C 114.167,78.3333 114.167,77.6667 119.5,77C 125.859,76.1603 132.192,75.1603 138.5,74C 137.5,73.1667 136.5,72.3333 135.5,71.5C 130.208,70.5052 124.875,70.1718 119.5,70.5C 107.5,70.5 95.5,70.5 83.5,70.5 Z"/></g>
<g><path style="opacity:0.043" fill="#889154" d="M 56.5,77.5 C 56.8417,78.3382 57.5084,78.6716 58.5,78.5C 57.0313,84.5142 56.0313,90.5142 55.5,96.5C 55.1765,89.9779 55.5098,83.6446 56.5,77.5 Z"/></g>
<g><path style="opacity:1" fill="#fbe42f" d="M 235.5,106.5 C 233.426,99.9437 231.76,93.277 230.5,86.5C 230.351,85.448 230.517,84.448 231,83.5C 232.669,85.1691 233.502,87.1691 233.5,89.5C 235.981,89.6766 237.814,88.6766 239,86.5C 239.388,87.428 240.055,88.0946 241,88.5C 244.177,87.8331 247.011,86.4998 249.5,84.5C 251.19,88.5906 252.856,92.5906 254.5,96.5C 257.44,104.247 259.773,112.247 261.5,120.5C 238.524,122.49 215.191,123.157 191.5,122.5C 194.644,113.296 197.477,103.963 200,94.5C 202.35,90.4312 204.683,86.4312 207,82.5C 212.764,83.6626 218.597,84.6626 224.5,85.5C 224.833,86.1667 225.167,86.8333 225.5,87.5C 224.74,89.4035 224.74,91.4035 225.5,93.5C 223.935,96.8004 222.268,99.9671 220.5,103C 220.149,106.07 219.483,109.07 218.5,112C 219.295,113.582 220.462,113.749 222,112.5C 223.68,113.547 225.514,114.213 227.5,114.5C 230.867,113.367 234.201,113.367 237.5,114.5C 237.435,111.572 236.768,108.905 235.5,106.5 Z"/></g>
<g><path style="opacity:1" fill="#c0782a" d="M 230.5,86.5 C 231.76,93.277 233.426,99.9437 235.5,106.5C 235.88,108.698 235.213,110.365 233.5,111.5C 231.827,105.147 229.994,98.8138 228,92.5C 227.722,93.4158 227.222,94.0825 226.5,94.5C 226.457,91.0901 226.957,87.7568 228,84.5C 228.708,85.3805 229.542,86.0472 230.5,86.5 Z"/></g>
<g><path style="opacity:1" fill="#df9830" d="M 119.5,70.5 C 124.875,70.1718 130.208,70.5052 135.5,71.5C 136.5,72.3333 137.5,73.1667 138.5,74C 132.192,75.1603 125.859,76.1603 119.5,77C 114.167,77.6667 114.167,78.3333 119.5,79C 114.108,79.6813 108.775,80.6813 103.5,82C 101.808,83.4007 101.141,85.2341 101.5,87.5C 99.396,87.2011 97.396,87.5344 95.5,88.5C 96.0253,89.1924 96.6919,89.6924 97.5,90C 96.6195,90.7083 95.9528,91.5416 95.5,92.5C 96.5,93.8333 97.5,95.1667 98.5,96.5C 94.5786,97.07 92.412,95.4033 92,91.5C 88.7407,91.6381 87.2407,93.6381 87.5,97.5C 84.7531,97.1866 82.0865,97.52 79.5,98.5C 77.7793,101.297 75.6126,103.631 73,105.5C 74.329,108.704 75.4957,112.037 76.5,115.5C 72.1245,112.126 68.4578,108.126 65.5,103.5C 66.552,103.649 67.552,103.483 68.5,103C 64.7173,96.8324 63.7173,90.3324 65.5,83.5C 65.5,86.1667 65.5,88.8333 65.5,91.5C 67.1667,91.5 68.8333,91.5 70.5,91.5C 70.5,93.1667 70.5,94.8333 70.5,96.5C 72.3084,96.5086 73.9751,96.0086 75.5,95C 74.1667,94.6667 72.8333,94.3333 71.5,94C 75.1554,92.7939 78.822,91.4606 82.5,90C 83.3366,88.9887 83.67,87.8221 83.5,86.5C 85.5,86.5 87.5,86.5 89.5,86.5C 88.9532,82.71 90.6199,80.71 94.5,80.5C 95.4287,79.3112 95.762,77.9778 95.5,76.5C 98.8499,76.665 102.183,76.4983 105.5,76C 110.304,73.8686 114.97,72.0353 119.5,70.5 Z"/></g>
<g><path style="opacity:1" fill="#ca762c" d="M 192.5,91.5 C 192.5,91.8333 192.5,92.1667 192.5,92.5C 181.5,92.5 170.5,92.5 159.5,92.5C 159.5,94.8333 159.5,97.1667 159.5,99.5C 158.599,98.7095 157.932,97.7095 157.5,96.5C 157.5,94.1667 157.5,91.8333 157.5,89.5C 169.419,88.8876 181.086,89.5543 192.5,91.5 Z"/></g>
<g><path style="opacity:1" fill="#100c0a" d="M 95.5,92.5 C 107.833,92.5 120.167,92.5 132.5,92.5C 132.5,102.167 132.5,111.833 132.5,121.5C 132.5,129.167 132.5,136.833 132.5,144.5C 141.5,144.5 150.5,144.5 159.5,144.5C 155.316,145.166 150.982,145.833 146.5,146.5C 148.117,146.669 149.784,147.003 151.5,147.5C 147.541,148.327 143.541,148.827 139.5,149C 153.163,149.5 166.829,149.667 180.5,149.5C 184.182,149.335 187.848,149.501 191.5,150C 189.881,150.236 188.881,151.069 188.5,152.5C 188.167,152.5 187.833,152.5 187.5,152.5C 180.699,151.169 173.533,150.503 166,150.5C 158.833,150.667 151.667,150.833 144.5,151C 140.586,161.243 137.586,171.743 135.5,182.5C 131.221,194.061 127.221,205.728 123.5,217.5C 123.5,216.5 123.5,215.5 123.5,214.5C 121.408,214.439 119.908,213.439 119,211.5C 118.576,209.485 117.742,207.651 116.5,206C 117.33,204.535 117.496,203.035 117,201.5C 116.617,202.056 116.117,202.389 115.5,202.5C 120.675,185.471 126.008,168.471 131.5,151.5C 121.5,150.167 111.5,150.167 101.5,151.5C 99.7656,157.203 97.9323,162.87 96,168.5C 93.3404,162.689 91.1738,156.689 89.5,150.5C 78.4798,150.168 67.4798,150.501 56.5,151.5C 55.5683,156.625 54.2349,161.625 52.5,166.5C 51.7321,167.263 51.2321,168.263 51,169.5C 49.2951,162.882 47.1285,156.549 44.5,150.5C 34.1667,150.5 23.8333,150.5 13.5,150.5C 20.0231,170.738 26.3564,191.071 32.5,211.5C 30.1725,210.264 29.0058,208.264 29,205.5C 27.957,207.833 27.1237,210.166 26.5,212.5C 25.5,212.5 24.5,212.5 23.5,212.5C 24.2176,208.097 23.0509,204.43 20,201.5C 19.5172,200.552 19.3505,199.552 19.5,198.5C 20.3382,198.158 20.6716,197.492 20.5,196.5C 21.8333,195.5 21.8333,194.5 20.5,193.5C 20.6716,192.508 20.3382,191.842 19.5,191.5C 19.5,190.833 19.1667,190.5 18.5,190.5C 17.9423,189.21 16.9423,188.377 15.5,188C 16.8333,187 16.8333,186 15.5,185C 16.3081,184.692 16.9747,184.192 17.5,183.5C 16.5585,183.511 15.8919,183.011 15.5,182C 15.6448,181.228 15.9781,180.561 16.5,180C 15.7511,178.266 15.2511,176.433 15,174.5C 12.9742,173.981 10.9742,173.647 9,173.5C 8.33678,168.999 8.83678,168.665 10.5,172.5C 14.3167,170.586 14.3167,168.586 10.5,166.5C 10.5,165.5 10.5,164.5 10.5,163.5C 11.8333,162.833 11.8333,162.167 10.5,161.5C 9.96796,158.54 9.30129,158.207 8.5,160.5C 7.75753,143.861 7.4242,127.195 7.5,110.5C 12.8797,110.324 18.213,110.658 23.5,111.5C 37.58,111.832 50.9133,111.499 63.5,110.5C 63.5,109.833 63.1667,109.5 62.5,109.5C 62.5,108.833 62.1667,108.5 61.5,108.5C 60.19,107.468 58.8567,105.801 57.5,103.5C 55.9254,101.886 55.2587,99.8863 55.5,97.5C 56.4959,97.5858 57.3292,97.2524 58,96.5C 61.0207,100.599 62.1874,99.9325 61.5,94.5C 62.5173,97.5436 63.8506,100.544 65.5,103.5C 68.4578,108.126 72.1245,112.126 76.5,115.5C 76.1788,117.048 75.1788,117.715 73.5,117.5C 53.5,117.5 33.5,117.5 13.5,117.5C 13.5,126.5 13.5,135.5 13.5,144.5C 38.1667,144.5 62.8333,144.5 87.5,144.5C 93.85,144.494 99.5167,142.494 104.5,138.5C 111.198,131.163 113.364,122.496 111,112.5C 107.761,106.429 103.594,101.096 98.5,96.5C 97.5,95.1667 96.5,93.8333 95.5,92.5 Z M 21.5,199.5 C 22.2891,199.783 22.9558,200.283 23.5,201C 22.184,201.528 21.5173,201.028 21.5,199.5 Z"/></g>
<g><path style="opacity:1" fill="#050307" d="M 329.5,91.5 C 329.834,94.188 329.168,96.5214 327.5,98.5C 321.167,98.5 314.833,98.5 308.5,98.5C 308.5,95.5 308.5,92.5 308.5,89.5C 314.842,89.3338 321.175,89.5005 327.5,90C 328.044,90.7172 328.711,91.2172 329.5,91.5 Z"/></g>
<g><path style="opacity:1" fill="#e5ab32" d="M 356.5,97.5 C 354.833,105.001 350.667,110.667 344,114.5C 343.536,115.094 343.369,115.761 343.5,116.5C 342.5,116.5 341.5,116.5 340.5,116.5C 343.247,112.954 345.081,108.954 346,104.5C 342.045,102.209 338.378,99.5423 335,96.5C 333.493,98.008 331.827,99.3413 330,100.5C 329.583,99.244 328.75,98.5774 327.5,98.5C 329.168,96.5214 329.834,94.188 329.5,91.5C 329.48,89.857 330.147,88.5237 331.5,87.5C 335.445,86.5091 339.445,86.1758 343.5,86.5C 343.5,88.1667 343.5,89.8333 343.5,91.5C 346.049,91.3874 348.382,92.0541 350.5,93.5C 351.192,92.9747 351.692,92.3081 352,91.5C 352.908,93.4386 354.408,94.4386 356.5,94.5C 356.5,95.5 356.5,96.5 356.5,97.5 Z"/></g>
<g><path style="opacity:1" fill="#f2cc31" d="M 277.5,67.5 C 297.169,67.3334 316.836,67.5 336.5,68C 339.06,68.3838 341.394,69.2171 343.5,70.5C 341.019,71.2583 338.352,71.2583 335.5,70.5C 317.007,69.5031 298.341,69.1698 279.5,69.5C 279.334,73.5138 279.501,77.5138 280,81.5C 281.699,87.7783 283.199,88.1117 284.5,82.5C 285.852,83.5175 286.852,84.8508 287.5,86.5C 289.167,87.3333 290.833,88.1667 292.5,89C 296.456,89.8097 300.456,90.3097 304.5,90.5C 304.18,93.8984 304.513,97.2317 305.5,100.5C 307.225,102.092 308.225,101.758 308.5,99.5C 315.022,99.8235 321.355,99.4902 327.5,98.5C 328.75,98.5774 329.583,99.244 330,100.5C 331.827,99.3413 333.493,98.008 335,96.5C 338.378,99.5423 342.045,102.209 346,104.5C 345.081,108.954 343.247,112.954 340.5,116.5C 341.5,116.5 342.5,116.5 343.5,116.5C 356.99,117.496 370.656,117.829 384.5,117.5C 384.047,118.458 383.381,119.292 382.5,120C 377.511,120.499 372.511,120.666 367.5,120.5C 367.5,124.5 367.5,128.5 367.5,132.5C 359.488,132.499 351.488,132.166 343.5,131.5C 340.41,131.478 337.743,130.812 335.5,129.5C 339.182,129.665 342.848,129.499 346.5,129C 340.625,122.29 334.625,116.29 328.5,111C 325.518,110.502 322.518,110.335 319.5,110.5C 319.5,109.5 319.5,108.5 319.5,107.5C 315.667,106.839 314.167,108.172 315,111.5C 313.667,112.167 312.333,112.833 311,113.5C 309.115,111.98 306.949,110.98 304.5,110.5C 303.571,109.311 303.238,107.978 303.5,106.5C 299.592,105.699 296.259,103.865 293.5,101C 291.074,101.048 288.741,100.881 286.5,100.5C 285.757,99.0921 284.923,97.7588 284,96.5C 281.779,97.9344 280.279,99.9344 279.5,102.5C 278.335,110.479 278.168,118.479 279,126.5C 280.18,125.316 281.68,124.649 283.5,124.5C 290.466,125.579 297.466,126.246 304.5,126.5C 304.5,123.167 304.5,119.833 304.5,116.5C 306.179,116.285 307.179,116.952 307.5,118.5C 305.796,125.476 304.796,132.81 304.5,140.5C 295.333,140.95 286.333,141.95 277.5,143.5C 277.5,118.167 277.5,92.8333 277.5,67.5 Z"/></g>
<g><path style="opacity:1" fill="#100908" d="M 233.5,111.5 C 229.833,111.5 226.167,111.5 222.5,111.5C 223.051,105.632 224.384,99.9649 226.5,94.5C 227.222,94.0825 227.722,93.4158 228,92.5C 229.994,98.8138 231.827,105.147 233.5,111.5 Z"/></g>
<g><path style="opacity:0.01" fill="#000000" d="M 57.5,103.5 C 57.5386,104.756 57.0386,105.756 56,106.5C 55.4153,105.002 55.9153,104.002 57.5,103.5 Z"/></g>
<g><path style="opacity:1" fill="#fae031" d="M 157.5,96.5 C 157.932,97.7095 158.599,98.7095 159.5,99.5C 159.5,107.5 159.5,115.5 159.5,123.5C 151.49,123.644 143.49,123.977 135.5,124.5C 135.831,117.137 135.497,109.803 134.5,102.5C 133.833,108.988 133.167,115.321 132.5,121.5C 132.5,111.833 132.5,102.167 132.5,92.5C 132.842,91.6618 133.508,91.3284 134.5,91.5C 140.969,90.7896 147.469,90.4563 154,90.5C 154.772,90.6448 155.439,90.9781 156,91.5C 156.198,93.3817 156.698,95.0484 157.5,96.5 Z"/></g>
<g><path style="opacity:0.01" fill="#000000" d="M 361.5,104.5 C 361.833,104.5 362.167,104.5 362.5,104.5C 362.598,106.553 361.931,108.22 360.5,109.5C 360.5,108.5 360.5,107.5 360.5,106.5C 361.338,106.158 361.672,105.492 361.5,104.5 Z"/></g>
<g><path style="opacity:0.005" fill="#000000" d="M 365.5,104.5 C 366.573,105.251 366.74,106.251 366,107.5C 365.517,106.552 365.351,105.552 365.5,104.5 Z"/></g>
<g><path style="opacity:0.009" fill="#000000" d="M 56.5,107.5 C 57.7733,108.077 57.7733,108.743 56.5,109.5C 55.537,109.03 55.537,108.363 56.5,107.5 Z"/></g>
<g><path style="opacity:0.009" fill="#ed0ce8" d="M 61.5,108.5 C 62.1667,108.5 62.5,108.833 62.5,109.5C 63.1667,109.5 63.5,109.833 63.5,110.5C 50.9133,111.499 37.58,111.832 23.5,111.5C 36.237,111.127 48.9037,110.127 61.5,108.5 Z"/></g>
<g><path style="opacity:0.016" fill="#89831f" d="M 367.5,110.5 C 364.024,111.643 360.358,111.81 356.5,111C 357.244,109.961 358.244,109.461 359.5,109.5C 359.833,109.5 360.167,109.5 360.5,109.5C 360.56,110.043 360.893,110.376 361.5,110.5C 362.584,109.335 363.417,108.002 364,106.5C 364.684,107.784 364.517,108.951 363.5,110C 365.019,109.669 366.352,109.836 367.5,110.5 Z"/></g>
<g><path style="opacity:0.039" fill="#194c00" d="M 390.5,110.5 C 391.833,111.167 391.833,111.167 390.5,110.5 Z"/></g>
<g><path style="opacity:1" fill="#f9dc31" d="M 335.5,129.5 C 329.012,129.156 322.679,128.156 316.5,126.5C 313.177,124.176 310.177,121.509 307.5,118.5C 307.179,116.952 306.179,116.285 304.5,116.5C 304.5,119.833 304.5,123.167 304.5,126.5C 297.466,126.246 290.466,125.579 283.5,124.5C 281.68,124.649 280.18,125.316 279,126.5C 278.168,118.479 278.335,110.479 279.5,102.5C 280.279,99.9344 281.779,97.9344 284,96.5C 284.923,97.7588 285.757,99.0921 286.5,100.5C 288.741,100.881 291.074,101.048 293.5,101C 296.259,103.865 299.592,105.699 303.5,106.5C 303.238,107.978 303.571,109.311 304.5,110.5C 306.949,110.98 309.115,111.98 311,113.5C 312.333,112.833 313.667,112.167 315,111.5C 314.167,108.172 315.667,106.839 319.5,107.5C 319.5,108.5 319.5,109.5 319.5,110.5C 322.518,110.335 325.518,110.502 328.5,111C 334.625,116.29 340.625,122.29 346.5,129C 342.848,129.499 339.182,129.665 335.5,129.5 Z"/></g>
<g><path style="opacity:1" fill="#f4d131" d="M 17.5,142.5 C 38.1694,142.333 58.836,142.5 79.5,143C 82.3647,143.183 85.0314,143.683 87.5,144.5C 62.8333,144.5 38.1667,144.5 13.5,144.5C 13.5,135.5 13.5,126.5 13.5,117.5C 33.5,117.5 53.5,117.5 73.5,117.5C 75.2646,118.461 77.2646,118.795 79.5,118.5C 79.5603,115.979 78.8936,113.646 77.5,111.5C 79.1309,108.577 80.4642,105.577 81.5,102.5C 84.5719,102.817 87.5719,102.484 90.5,101.5C 89.2889,100.28 89.2889,99.1131 90.5,98C 92.5787,97.1923 94.5787,97.359 96.5,98.5C 100.847,101.848 104.514,105.848 107.5,110.5C 108.823,115.752 109.49,121.085 109.5,126.5C 91.7595,130.465 73.7595,131.965 55.5,131C 57.754,130.376 59.4206,129.043 60.5,127C 61.448,126.517 62.448,126.351 63.5,126.5C 63.5,124.5 63.5,122.5 63.5,120.5C 47.8326,120.194 32.1659,119.861 16.5,119.5C 16.1746,127.352 16.508,135.018 17.5,142.5 Z"/></g>
<g><path style="opacity:1" fill="#efc031" d="M 159.5,123.5 C 159.5,130.5 159.5,137.5 159.5,144.5C 150.5,144.5 141.5,144.5 132.5,144.5C 132.5,136.833 132.5,129.167 132.5,121.5C 133.167,115.321 133.833,108.988 134.5,102.5C 135.497,109.803 135.831,117.137 135.5,124.5C 143.49,123.977 151.49,123.644 159.5,123.5 Z"/></g>
<g><path style="opacity:1" fill="#f0c732" d="M 248.5,67.5 C 248.425,71.8967 248.925,76.23 250,80.5C 252.017,85.7127 253.517,91.046 254.5,96.5C 252.856,92.5906 251.19,88.5906 249.5,84.5C 247.011,86.4998 244.177,87.8331 241,88.5C 240.055,88.0946 239.388,87.428 239,86.5C 237.814,88.6766 235.981,89.6766 233.5,89.5C 233.502,87.1691 232.669,85.1691 231,83.5C 230.517,84.448 230.351,85.448 230.5,86.5C 229.542,86.0472 228.708,85.3805 228,84.5C 226.957,87.7568 226.457,91.0901 226.5,94.5C 224.384,99.9649 223.051,105.632 222.5,111.5C 226.167,111.5 229.833,111.5 233.5,111.5C 235.213,110.365 235.88,108.698 235.5,106.5C 236.768,108.905 237.435,111.572 237.5,114.5C 234.201,113.367 230.867,113.367 227.5,114.5C 225.514,114.213 223.68,113.547 222,112.5C 220.462,113.749 219.295,113.582 218.5,112C 219.483,109.07 220.149,106.07 220.5,103C 222.268,99.9671 223.935,96.8004 225.5,93.5C 224.74,91.4035 224.74,89.4035 225.5,87.5C 225.167,86.8333 224.833,86.1667 224.5,85.5C 218.597,84.6626 212.764,83.6626 207,82.5C 204.683,86.4312 202.35,90.4312 200,94.5C 197.477,103.963 194.644,113.296 191.5,122.5C 215.191,123.157 238.524,122.49 261.5,120.5C 264.292,126.024 266.459,132.024 268,138.5C 269.405,139.731 270.571,141.064 271.5,142.5C 262.56,144.472 253.227,145.139 243.5,144.5C 243.352,140.739 242.352,137.239 240.5,134C 232.173,133.5 223.84,133.334 215.5,133.5C 214.292,132.218 212.958,132.218 211.5,133.5C 210.785,136.709 209.618,139.709 208,142.5C 200.197,141.179 192.363,141.179 184.5,142.5C 183.702,142.043 183.369,141.376 183.5,140.5C 190.563,116.053 197.896,91.7192 205.5,67.5C 219.833,67.5 234.167,67.5 248.5,67.5 Z"/></g>
<g><path style="opacity:1" fill="#e8b132" d="M 98.5,96.5 C 103.594,101.096 107.761,106.429 111,112.5C 113.364,122.496 111.198,131.163 104.5,138.5C 99.9538,138.268 95.6205,139.101 91.5,141C 66.6633,141.168 41.9966,141.668 17.5,142.5C 16.508,135.018 16.1746,127.352 16.5,119.5C 32.1659,119.861 47.8326,120.194 63.5,120.5C 63.5,122.5 63.5,124.5 63.5,126.5C 62.448,126.351 61.448,126.517 60.5,127C 59.4206,129.043 57.754,130.376 55.5,131C 73.7595,131.965 91.7595,130.465 109.5,126.5C 109.49,121.085 108.823,115.752 107.5,110.5C 104.514,105.848 100.847,101.848 96.5,98.5C 94.5787,97.359 92.5787,97.1923 90.5,98C 89.2889,99.1131 89.2889,100.28 90.5,101.5C 87.5719,102.484 84.5719,102.817 81.5,102.5C 80.4642,105.577 79.1309,108.577 77.5,111.5C 78.8936,113.646 79.5603,115.979 79.5,118.5C 77.2646,118.795 75.2646,118.461 73.5,117.5C 75.1788,117.715 76.1788,117.048 76.5,115.5C 75.4957,112.037 74.329,108.704 73,105.5C 75.6126,103.631 77.7793,101.297 79.5,98.5C 82.0865,97.52 84.7531,97.1866 87.5,97.5C 87.2407,93.6381 88.7407,91.6381 92,91.5C 92.412,95.4033 94.5786,97.07 98.5,96.5 Z"/></g>
<g><path style="opacity:0.866" fill="#0c0708" d="M 335.5,62.5 C 338.518,62.3354 341.518,62.502 344.5,63C 343.288,64.1068 343.621,64.6068 345.5,64.5C 346.167,64.5 346.5,64.8333 346.5,65.5C 346.842,66.3382 347.508,66.6716 348.5,66.5C 348.842,67.3382 349.508,67.6716 350.5,67.5C 351.795,68.4884 353.128,69.4884 354.5,70.5C 355.105,72.0257 356.271,73.0257 358,73.5C 358.21,75.0581 358.71,76.3915 359.5,77.5C 359.328,78.4916 359.662,79.1583 360.5,79.5C 361.938,82.7157 363.105,86.049 364,89.5C 367.855,92.5773 368.355,96.744 365.5,102C 366.167,102.333 366.833,102.667 367.5,103C 366.584,103.278 365.918,103.778 365.5,104.5C 364.82,100.754 364.654,96.7544 365,92.5C 364.167,93.3333 363.333,94.1667 362.5,95C 363.333,97.0811 363.333,99.2478 362.5,101.5C 361.596,102.209 361.263,103.209 361.5,104.5C 360.662,104.842 360.328,105.508 360.5,106.5C 359.596,107.209 359.263,108.209 359.5,109.5C 358.244,109.461 357.244,109.961 356.5,111C 360.358,111.81 364.024,111.643 367.5,110.5C 375.253,110.201 382.92,110.534 390.5,111.5C 391.489,135.092 391.823,158.759 391.5,182.5C 383.5,182.5 375.5,182.5 367.5,182.5C 363.033,181.138 361.367,181.138 362.5,182.5C 361.072,185.35 361.739,186.35 364.5,185.5C 364.523,187.927 365.023,190.26 366,192.5C 366.278,191.584 366.778,190.918 367.5,190.5C 367.67,191.822 367.337,192.989 366.5,194C 367.811,197.354 368.644,200.854 369,204.5C 369.383,203.944 369.883,203.611 370.5,203.5C 370.5,204.5 370.5,205.5 370.5,206.5C 369.685,207.429 368.852,208.429 368,209.5C 367.26,210.749 367.427,211.749 368.5,212.5C 367.89,213.391 367.557,214.391 367.5,215.5C 366.094,215.973 365.427,216.973 365.5,218.5C 364.833,218.5 364.5,218.833 364.5,219.5C 363.596,220.209 363.263,221.209 363.5,222.5C 359.664,224.113 358.83,226.446 361,229.5C 360.329,230.252 359.496,230.586 358.5,230.5C 357.5,227.833 356.5,227.833 355.5,230.5C 354.167,230.5 352.833,230.5 351.5,230.5C 351.567,231.959 351.234,233.292 350.5,234.5C 349.5,234.5 348.5,234.5 347.5,234.5C 348.463,233.637 348.463,232.97 347.5,232.5C 346.261,232.942 345.261,233.609 344.5,234.5C 343.71,235.609 343.21,236.942 343,238.5C 341.933,237.809 340.766,237.309 339.5,237C 340.5,236.667 341.5,236.333 342.5,236C 340.167,235.667 337.833,235.333 335.5,235C 302.154,234.805 268.821,234.305 235.5,233.5C 167.976,233.961 100.642,234.295 33.5,234.5C 33.4894,232.983 32.8228,231.816 31.5,231C 27.2476,230.389 26.2476,228.222 28.5,224.5C 26.6064,228.851 24.9398,229.018 23.5,225C 23.5699,224.235 23.9033,223.735 24.5,223.5C 24.3691,224.376 24.7025,225.043 25.5,225.5C 26.8003,222.691 26.8003,220.024 25.5,217.5C 25.5,217.167 25.5,216.833 25.5,216.5C 27.8418,216.225 27.8418,215.392 25.5,214C 26.056,213.617 26.3893,213.117 26.5,212.5C 27.1237,210.166 27.957,207.833 29,205.5C 29.0058,208.264 30.1725,210.264 32.5,211.5C 33.7062,216.66 35.3729,221.66 37.5,226.5C 45.7688,228.47 54.4355,229.136 63.5,228.5C 66.626,219.286 69.4593,209.953 72,200.5C 72.3826,201.056 72.8826,201.389 73.5,201.5C 76.2726,210.057 78.7726,218.724 81,227.5C 90,228.833 99,228.833 108,227.5C 110.518,219.142 113.018,210.808 115.5,202.5C 116.117,202.389 116.617,202.056 117,201.5C 117.496,203.035 117.33,204.535 116.5,206C 117.742,207.651 118.576,209.485 119,211.5C 119.908,213.439 121.408,214.439 123.5,214.5C 123.5,215.5 123.5,216.5 123.5,217.5C 122.417,221.085 121.751,224.751 121.5,228.5C 131.015,228.827 140.348,228.494 149.5,227.5C 151.118,224.112 152.118,220.446 152.5,216.5C 154.833,216.5 157.167,216.5 159.5,216.5C 166.175,216.334 172.842,216.5 179.5,217C 180.833,220.667 182.167,224.333 183.5,228C 192.827,228.5 202.161,228.666 211.5,228.5C 203.824,203.122 196.158,177.788 188.5,152.5C 188.881,151.069 189.881,150.236 191.5,150C 187.848,149.501 184.182,149.335 180.5,149.5C 182.019,148.59 183.685,147.757 185.5,147C 192.833,146.667 200.167,146.333 207.5,146C 198.99,145.829 190.657,145.329 182.5,144.5C 192.167,144.5 201.833,144.5 211.5,144.5C 211.933,141.834 212.433,139.168 213,136.5C 213.377,135.058 214.21,134.058 215.5,133.5C 223.84,133.334 232.173,133.5 240.5,134C 242.352,137.239 243.352,140.739 243.5,144.5C 253.227,145.139 262.56,144.472 271.5,142.5C 272.404,143.209 272.737,144.209 272.5,145.5C 267.36,145.18 262.36,145.847 257.5,147.5C 253.535,146.47 249.535,146.303 245.5,147C 246.68,148.317 248.18,148.484 250,147.5C 257.904,148.958 265.737,149.958 273.5,150.5C 255.167,150.5 236.833,150.5 218.5,150.5C 217.502,176.328 217.169,202.328 217.5,228.5C 226.167,228.5 234.833,228.5 243.5,228.5C 245.167,228.5 246.833,228.5 248.5,228.5C 248.5,221.5 248.5,214.5 248.5,207.5C 251.233,210.239 254.233,212.573 257.5,214.5C 258.167,215.833 259.167,216.833 260.5,217.5C 263.913,223.251 268.913,226.585 275.5,227.5C 297.996,228.663 320.663,228.83 343.5,228C 358.79,222.628 364.956,211.795 362,195.5C 357.26,188.62 352.427,181.953 347.5,175.5C 349.833,175.5 352.167,175.5 354.5,175.5C 364.5,175.5 374.5,175.5 384.5,175.5C 385.833,167.167 385.833,158.833 384.5,150.5C 365.432,150.038 346.432,150.538 327.5,152C 313.177,158.781 309.177,169.281 315.5,183.5C 316.045,185.593 316.878,187.593 318,189.5C 321.349,192.682 324.516,196.015 327.5,199.5C 313.178,200.666 298.845,200.833 284.5,200C 284.043,199.586 283.709,199.086 283.5,198.5C 285.419,197.388 287.086,196.054 288.5,194.5C 296.794,187.783 299.627,179.116 297,168.5C 295.383,164.103 292.883,160.269 289.5,157C 285.353,154.26 281.02,152.093 276.5,150.5C 277.289,150.217 277.956,149.717 278.5,149C 288.5,148.667 298.5,148.333 308.5,148C 305.845,147.436 303.179,146.936 300.5,146.5C 294.778,147.229 289.111,147.562 283.5,147.5C 282.167,147.333 280.833,147.167 279.5,147C 280.167,146.667 280.833,146.333 281.5,146C 279.942,145.79 278.609,145.29 277.5,144.5C 279.5,144.5 281.5,144.5 283.5,144.5C 291.684,144.826 299.684,144.492 307.5,143.5C 307.17,136.8 307.503,130.134 308.5,123.5C 315.195,130.197 322.195,136.53 329.5,142.5C 330.473,142.987 331.473,143.487 332.5,144C 350.164,144.5 367.83,144.667 385.5,144.5C 385.827,135.318 385.493,126.318 384.5,117.5C 370.656,117.829 356.99,117.496 343.5,116.5C 343.369,115.761 343.536,115.094 344,114.5C 350.667,110.667 354.833,105.001 356.5,97.5C 358.94,85.3764 354.607,76.3764 343.5,70.5C 341.394,69.2171 339.06,68.3838 336.5,68C 316.836,67.5 297.169,67.3334 277.5,67.5C 296.662,66.6682 315.996,66.1682 335.5,66C 334.316,64.8545 334.316,63.6879 335.5,62.5 Z M 28.5,219.5 C 29.625,220.348 29.625,221.348 28.5,222.5C 27.375,221.652 27.375,220.652 28.5,219.5 Z M 28.5,222.5 C 30.1042,223.287 30.7709,224.62 30.5,226.5C 29.8333,225.833 29.1667,225.167 28.5,224.5C 28.5,223.833 28.5,223.167 28.5,222.5 Z M 30.5,226.5 C 31.7759,227.386 31.7759,228.386 30.5,229.5C 29.4376,228.575 29.4376,227.575 30.5,226.5 Z M 347.5,234.5 C 346.5,234.5 345.5,234.5 344.5,234.5C 345.261,233.609 346.261,232.942 347.5,232.5C 348.463,232.97 348.463,233.637 347.5,234.5 Z"/></g>
<g><path style="opacity:0.004" fill="#000000" d="M 362.5,103.5 C 363.833,104.167 363.833,104.167 362.5,103.5 Z"/></g>
<g><path style="opacity:0.008" fill="#000000" d="M 362.5,101.5 C 363.833,102.167 363.833,102.167 362.5,101.5 Z"/></g>
<g><path style="opacity:1" fill="#da8b2e" d="M 307.5,118.5 C 310.177,121.509 313.177,124.176 316.5,126.5C 318.826,128.602 320.826,131.102 322.5,134C 324.134,134.494 325.801,134.66 327.5,134.5C 328.578,138.384 331.245,140.217 335.5,140C 349.545,140.816 363.545,140.649 377.5,139.5C 378.386,140.325 378.719,141.325 378.5,142.5C 361.957,142.431 345.624,142.431 329.5,142.5C 322.195,136.53 315.195,130.197 308.5,123.5C 307.503,130.134 307.17,136.8 307.5,143.5C 303.216,142.895 298.882,142.562 294.5,142.5C 290.435,142.511 286.768,143.178 283.5,144.5C 281.5,144.5 279.5,144.5 277.5,144.5C 277.5,144.167 277.5,143.833 277.5,143.5C 286.333,141.95 295.333,140.95 304.5,140.5C 304.796,132.81 305.796,125.476 307.5,118.5 Z"/></g>
<g><path style="opacity:1" fill="#e7b132" d="M 384.5,117.5 C 385.493,126.318 385.827,135.318 385.5,144.5C 367.83,144.667 350.164,144.5 332.5,144C 331.473,143.487 330.473,142.987 329.5,142.5C 345.624,142.431 361.957,142.431 378.5,142.5C 378.719,141.325 378.386,140.325 377.5,139.5C 363.545,140.649 349.545,140.816 335.5,140C 331.245,140.217 328.578,138.384 327.5,134.5C 325.801,134.66 324.134,134.494 322.5,134C 320.826,131.102 318.826,128.602 316.5,126.5C 322.679,128.156 329.012,129.156 335.5,129.5C 337.743,130.812 340.41,131.478 343.5,131.5C 351.488,132.166 359.488,132.499 367.5,132.5C 367.5,128.5 367.5,124.5 367.5,120.5C 372.511,120.666 377.511,120.499 382.5,120C 383.381,119.292 384.047,118.458 384.5,117.5 Z"/></g>
<g><path style="opacity:1" fill="#d47a2b" d="M 104.5,138.5 C 99.5167,142.494 93.85,144.494 87.5,144.5C 85.0314,143.683 82.3647,143.183 79.5,143C 58.836,142.5 38.1694,142.333 17.5,142.5C 41.9966,141.668 66.6633,141.168 91.5,141C 95.6205,139.101 99.9538,138.268 104.5,138.5 Z"/></g>
<g><path style="opacity:1" fill="#d87e32" d="M 215.5,133.5 C 214.21,134.058 213.377,135.058 213,136.5C 212.433,139.168 211.933,141.834 211.5,144.5C 201.833,144.5 192.167,144.5 182.5,144.5C 182.232,142.901 182.566,141.568 183.5,140.5C 183.369,141.376 183.702,142.043 184.5,142.5C 192.363,141.179 200.197,141.179 208,142.5C 209.618,139.709 210.785,136.709 211.5,133.5C 212.958,132.218 214.292,132.218 215.5,133.5 Z"/></g>
<g><path style="opacity:1" fill="#f2d83e" d="M 307.5,143.5 C 299.684,144.492 291.684,144.826 283.5,144.5C 286.768,143.178 290.435,142.511 294.5,142.5C 298.882,142.562 303.216,142.895 307.5,143.5 Z"/></g>
<g><path style="opacity:1" fill="#e9b632" d="M 218.5,150.5 C 236.833,150.5 255.167,150.5 273.5,150.5C 274.5,150.5 275.5,150.5 276.5,150.5C 281.02,152.093 285.353,154.26 289.5,157C 292.883,160.269 295.383,164.103 297,168.5C 299.627,179.116 296.794,187.783 288.5,194.5C 288.429,191.403 288.262,188.07 288,184.5C 284.207,186.638 280.04,187.971 275.5,188.5C 272.804,186.56 271.471,187.227 271.5,190.5C 264.45,191.021 257.617,190.354 251,188.5C 249.893,188.585 248.893,188.919 248,189.5C 247.342,187.892 247.842,186.725 249.5,186C 247.689,184.959 247.355,183.793 248.5,182.5C 254.842,182.666 261.175,182.5 267.5,182C 270.418,178.528 270.085,175.528 266.5,173C 260.509,172.501 254.509,172.334 248.5,172.5C 248.611,170.352 247.944,170.019 246.5,171.5C 246.083,176.27 245.083,180.77 243.5,185C 244.097,186.628 243.763,188.295 242.5,190C 240.243,189.69 237.91,189.19 235.5,188.5C 232.479,189.276 229.479,190.109 226.5,191C 224.819,194.466 223.819,194.3 223.5,190.5C 222.5,190.5 221.5,190.5 220.5,190.5C 220.5,198.5 220.5,206.5 220.5,214.5C 220.5,218.167 220.5,221.833 220.5,225.5C 229.559,225.154 238.559,225.654 247.5,227C 246.207,227.49 244.873,227.657 243.5,227.5C 235.167,227.5 226.833,227.5 218.5,227.5C 218.5,201.833 218.5,176.167 218.5,150.5 Z"/></g>
<g><path style="opacity:1" fill="#e7b433" d="M 384.5,150.5 C 384.586,151.496 384.252,152.329 383.5,153C 366.823,153.167 350.157,153.667 333.5,154.5C 334.025,155.192 334.692,155.692 335.5,156C 331.118,156.003 329.451,158.169 330.5,162.5C 334.172,162.817 335.838,161.151 335.5,157.5C 340.844,157.334 346.177,157.501 351.5,158C 349.212,158.822 346.878,159.489 344.5,160C 343.874,160.75 343.374,161.584 343,162.5C 341.951,161.483 340.784,161.316 339.5,162C 340.833,162.667 340.833,163.333 339.5,164C 337.888,164.72 336.388,164.554 335,163.5C 332.618,166.862 329.951,167.195 327,164.5C 325.734,168.489 323.068,171.822 319,174.5C 318.716,172.114 317.716,171.448 316,172.5C 315.917,176.277 315.75,179.944 315.5,183.5C 309.177,169.281 313.177,158.781 327.5,152C 346.432,150.538 365.432,150.038 384.5,150.5 Z"/></g>
<g><path style="opacity:0.009" fill="#000000" d="M 8.5,160.5 C 9.16667,160.833 9.83333,161.167 10.5,161.5C 10.5,162.167 10.5,162.833 10.5,163.5C 9.77842,163.918 9.27842,164.584 9,165.5C 8.50649,163.866 8.33982,162.199 8.5,160.5 Z"/></g>
<g><path style="opacity:0.005" fill="#000000" d="M 10.5,166.5 C 10.2172,167.289 9.71719,167.956 9,168.5C 8.47189,167.184 8.97189,166.517 10.5,166.5 Z"/></g>
<g><path style="opacity:1" fill="#e6af33" d="M 44.5,150.5 C 44.0617,152.126 43.7284,153.793 43.5,155.5C 45.982,161.949 47.6487,168.616 48.5,175.5C 48.2471,177.858 47.9138,180.192 47.5,182.5C 44.8333,182.5 42.1667,182.5 39.5,182.5C 39.5,181.167 39.5,179.833 39.5,178.5C 36.8333,178.5 34.1667,178.5 31.5,178.5C 31.5,179.833 31.5,181.167 31.5,182.5C 29.1511,182.458 27.8178,183.625 27.5,186C 29.539,194.529 32.2057,202.696 35.5,210.5C 36.3881,215.004 37.3881,219.504 38.5,224C 38.472,225.07 38.1386,225.903 37.5,226.5C 35.3729,221.66 33.7062,216.66 32.5,211.5C 26.3564,191.071 20.0231,170.738 13.5,150.5C 23.8333,150.5 34.1667,150.5 44.5,150.5 Z"/></g>
<g><path style="opacity:0.01" fill="#000000" d="M 10.5,168.5 C 11.2891,168.783 11.9558,169.283 12.5,170C 11.184,170.528 10.5173,170.028 10.5,168.5 Z"/></g>
<g><path style="opacity:1" fill="#e5ae32" d="M 115.5,202.5 C 113.018,210.808 110.518,219.142 108,227.5C 99,228.833 90,228.833 81,227.5C 78.7726,218.724 76.2726,210.057 73.5,201.5C 73.281,200.325 73.6143,199.325 74.5,198.5C 78.1097,207.594 81.1097,216.927 83.5,226.5C 91.1101,225.533 98.7767,225.2 106.5,225.5C 108.039,218.471 109.706,211.471 111.5,204.5C 114.618,199.764 115.451,194.764 114,189.5C 113.25,190.126 112.416,190.626 111.5,191C 112.554,192.388 112.72,193.888 112,195.5C 111.56,193.924 110.727,192.59 109.5,191.5C 104.656,190.892 99.9893,189.892 95.5,188.5C 95.5,187.5 95.5,186.5 95.5,185.5C 82.1625,185.667 68.8292,185.5 55.5,185C 54.6919,184.692 54.0253,184.192 53.5,183.5C 54.4279,182.232 54.5946,180.899 54,179.5C 53.0922,181.439 51.5922,182.439 49.5,182.5C 50.9442,177.271 51.9442,171.938 52.5,166.5C 54.2349,161.625 55.5683,156.625 56.5,151.5C 67.4798,150.501 78.4798,150.168 89.5,150.5C 91.1738,156.689 93.3404,162.689 96,168.5C 97.9323,162.87 99.7656,157.203 101.5,151.5C 111.5,150.167 121.5,150.167 131.5,151.5C 126.008,168.471 120.675,185.471 115.5,202.5 Z"/></g>
<g><path style="opacity:1" fill="#120c0a" d="M 172.5,192.5 C 169.316,194.414 165.649,195.08 161.5,194.5C 161.5,193.5 161.5,192.5 161.5,191.5C 162.635,185.927 164.469,180.594 167,175.5C 168.848,181.188 170.681,186.854 172.5,192.5 Z"/></g>
<g><path style="opacity:0.008" fill="#d4b500" d="M 367.5,182.5 C 367.5,185.167 367.5,187.833 367.5,190.5C 366.778,190.918 366.278,191.584 366,192.5C 365.023,190.26 364.523,187.927 364.5,185.5C 364.573,183.973 363.906,182.973 362.5,182.5C 361.367,181.138 363.033,181.138 367.5,182.5 Z"/></g>
<g><path style="opacity:1" fill="#e0982f" d="M 44.5,150.5 C 47.1285,156.549 49.2951,162.882 51,169.5C 51.2321,168.263 51.7321,167.263 52.5,166.5C 51.9442,171.938 50.9442,177.271 49.5,182.5C 51.5922,182.439 53.0922,181.439 54,179.5C 54.5946,180.899 54.4279,182.232 53.5,183.5C 54.0253,184.192 54.6919,184.692 55.5,185C 68.8292,185.5 82.1625,185.667 95.5,185.5C 95.5,186.5 95.5,187.5 95.5,188.5C 99.9893,189.892 104.656,190.892 109.5,191.5C 110.727,192.59 111.56,193.924 112,195.5C 112.72,193.888 112.554,192.388 111.5,191C 112.416,190.626 113.25,190.126 114,189.5C 115.451,194.764 114.618,199.764 111.5,204.5C 106.399,203.983 101.566,202.649 97,200.5C 91.1739,201.463 85.3406,201.296 79.5,200C 77.3768,196.697 75.0434,193.531 72.5,190.5C 71.4164,191.665 70.5831,192.998 70,194.5C 67.789,201.088 65.789,207.755 64,214.5C 63.5172,213.552 63.3505,212.552 63.5,211.5C 55.3226,210.714 47.1559,211.047 39,212.5C 38.5298,210.226 37.5298,208.226 36,206.5C 35.51,207.793 35.3433,209.127 35.5,210.5C 32.2057,202.696 29.539,194.529 27.5,186C 27.8178,183.625 29.1511,182.458 31.5,182.5C 31.5,181.167 31.5,179.833 31.5,178.5C 34.1667,178.5 36.8333,178.5 39.5,178.5C 39.5,179.833 39.5,181.167 39.5,182.5C 42.1667,182.5 44.8333,182.5 47.5,182.5C 47.9138,180.192 48.2471,177.858 48.5,175.5C 47.6487,168.616 45.982,161.949 43.5,155.5C 43.7284,153.793 44.0617,152.126 44.5,150.5 Z"/></g>
<g><path style="opacity:1" fill="#997b37" d="M 218.5,150.5 C 218.5,176.167 218.5,201.833 218.5,227.5C 226.833,227.5 235.167,227.5 243.5,227.5C 243.5,227.833 243.5,228.167 243.5,228.5C 234.833,228.5 226.167,228.5 217.5,228.5C 217.169,202.328 217.502,176.328 218.5,150.5 Z"/></g>
<g><path style="opacity:1" fill="#e8b332" d="M 187.5,152.5 C 186.378,154.288 186.211,156.288 187,158.5C 190.531,168.454 193.364,178.621 195.5,189C 194.352,190.726 193.185,190.559 192,188.5C 190.249,190.723 188.082,191.057 185.5,189.5C 181.809,190.021 178.143,190.688 174.5,191.5C 175.42,193.786 175.42,196.119 174.5,198.5C 169.881,197.929 165.214,197.929 160.5,198.5C 160.5,197.5 160.5,196.5 160.5,195.5C 164.833,195.5 169.167,195.5 173.5,195.5C 173.737,194.209 173.404,193.209 172.5,192.5C 170.681,186.854 168.848,181.188 167,175.5C 164.469,180.594 162.635,185.927 161.5,191.5C 159.153,189.956 156.486,189.289 153.5,189.5C 147.516,190.165 141.516,190.499 135.5,190.5C 135.383,188.516 136.05,186.85 137.5,185.5C 136.388,184.735 135.721,183.735 135.5,182.5C 137.586,171.743 140.586,161.243 144.5,151C 151.667,150.833 158.833,150.667 166,150.5C 173.533,150.503 180.699,151.169 187.5,152.5 Z"/></g>
<g><path style="opacity:0.007" fill="#000000" d="M 18.5,190.5 C 19.1667,190.5 19.5,190.833 19.5,191.5C 18.7659,192.708 18.4326,194.041 18.5,195.5C 17.6236,195.631 16.9569,195.298 16.5,194.5C 16.9943,192.974 17.661,191.641 18.5,190.5 Z"/></g>
<g><path style="opacity:0.008" fill="#000000" d="M 20.5,193.5 C 20.5,194.5 20.5,195.5 20.5,196.5C 19.6618,196.842 19.3284,197.508 19.5,198.5C 18.596,197.791 18.2627,196.791 18.5,195.5C 19.1667,194.833 19.8333,194.167 20.5,193.5 Z"/></g>
<g><path style="opacity:0.012" fill="#000000" d="M 16.5,197.5 C 17.8333,198.167 17.8333,198.167 16.5,197.5 Z"/></g>
<g><path style="opacity:1" fill="#de9630" d="M 384.5,150.5 C 385.833,158.833 385.833,167.167 384.5,175.5C 383.942,174.21 382.942,173.377 381.5,173C 372.506,172.5 363.506,172.334 354.5,172.5C 354.5,173.5 354.5,174.5 354.5,175.5C 352.167,175.5 349.833,175.5 347.5,175.5C 352.427,181.953 357.26,188.62 362,195.5C 364.956,211.795 358.79,222.628 343.5,228C 320.663,228.83 297.996,228.663 275.5,227.5C 295.674,227.83 315.674,227.497 335.5,226.5C 346.634,226.682 354.468,221.682 359,211.5C 359.801,205.835 360.134,200.168 360,194.5C 357.561,192.973 355.561,190.973 354,188.5C 348.593,188.916 343.093,189.916 337.5,191.5C 335.199,190.604 332.866,190.438 330.5,191C 333.167,191.667 333.167,192.333 330.5,193C 331.167,193.667 331.833,194.333 332.5,195C 330.833,197.155 329.833,199.655 329.5,202.5C 313.133,203.818 296.799,203.818 280.5,202.5C 279.833,203.167 279.167,203.833 278.5,204.5C 274.243,204.579 269.909,204.412 265.5,204C 262.017,205.908 258.517,207.741 255,209.5C 254.465,207.729 253.631,207.396 252.5,208.5C 254.531,210.31 256.198,212.31 257.5,214.5C 254.233,212.573 251.233,210.239 248.5,207.5C 251.254,204.9 250.754,202.9 247,201.5C 246.228,201.645 245.561,201.978 245,202.5C 244.453,205.702 243.453,208.702 242,211.5C 241.683,209.699 241.016,209.366 240,210.5C 234.272,208.47 228.605,208.47 223,210.5C 222.667,209.167 222.333,207.833 222,206.5C 221.817,209.365 221.317,212.031 220.5,214.5C 220.5,206.5 220.5,198.5 220.5,190.5C 221.5,190.5 222.5,190.5 223.5,190.5C 223.819,194.3 224.819,194.466 226.5,191C 229.479,190.109 232.479,189.276 235.5,188.5C 237.91,189.19 240.243,189.69 242.5,190C 243.763,188.295 244.097,186.628 243.5,185C 245.083,180.77 246.083,176.27 246.5,171.5C 247.944,170.019 248.611,170.352 248.5,172.5C 248.5,175.833 248.5,179.167 248.5,182.5C 247.355,183.793 247.689,184.959 249.5,186C 247.842,186.725 247.342,187.892 248,189.5C 248.893,188.919 249.893,188.585 251,188.5C 257.617,190.354 264.45,191.021 271.5,190.5C 271.471,187.227 272.804,186.56 275.5,188.5C 280.04,187.971 284.207,186.638 288,184.5C 288.262,188.07 288.429,191.403 288.5,194.5C 287.086,196.054 285.419,197.388 283.5,198.5C 283.709,199.086 284.043,199.586 284.5,200C 298.845,200.833 313.178,200.666 327.5,199.5C 324.516,196.015 321.349,192.682 318,189.5C 316.878,187.593 316.045,185.593 315.5,183.5C 315.75,179.944 315.917,176.277 316,172.5C 317.716,171.448 318.716,172.114 319,174.5C 323.068,171.822 325.734,168.489 327,164.5C 329.951,167.195 332.618,166.862 335,163.5C 336.388,164.554 337.888,164.72 339.5,164C 340.833,163.333 340.833,162.667 339.5,162C 340.784,161.316 341.951,161.483 343,162.5C 343.374,161.584 343.874,160.75 344.5,160C 346.878,159.489 349.212,158.822 351.5,158C 346.177,157.501 340.844,157.334 335.5,157.5C 335.838,161.151 334.172,162.817 330.5,162.5C 329.451,158.169 331.118,156.003 335.5,156C 334.692,155.692 334.025,155.192 333.5,154.5C 350.157,153.667 366.823,153.167 383.5,153C 384.252,152.329 384.586,151.496 384.5,150.5 Z"/></g>
<g><path style="opacity:1" fill="#efd13c" d="M 384.5,175.5 C 374.5,175.5 364.5,175.5 354.5,175.5C 354.5,174.5 354.5,173.5 354.5,172.5C 363.506,172.334 372.506,172.5 381.5,173C 382.942,173.377 383.942,174.21 384.5,175.5 Z"/></g>
<g><path style="opacity:1" fill="#130e0c" d="M 248.5,172.5 C 254.509,172.334 260.509,172.501 266.5,173C 270.085,175.528 270.418,178.528 267.5,182C 261.175,182.5 254.842,182.666 248.5,182.5C 248.5,179.167 248.5,175.833 248.5,172.5 Z"/></g>
<g><path style="opacity:0.008" fill="#000000" d="M 370.5,203.5 C 369.527,201.932 369.36,200.265 370,198.5C 370.402,199.872 370.902,201.205 371.5,202.5C 371.376,203.107 371.043,203.44 370.5,203.5 Z"/></g>
<g><path style="opacity:0.004" fill="#000000" d="M 371.5,198.5 C 372.833,199.167 372.833,199.167 371.5,198.5 Z"/></g>
<g><path style="opacity:0.008" fill="#000000" d="M 15.5,200.5 C 15.8966,199.475 16.5632,199.308 17.5,200C 16.9056,200.464 16.2389,200.631 15.5,200.5 Z"/></g>
<g><path style="opacity:0.008" fill="#000000" d="M 374.5,204.5 C 373.662,204.842 373.328,205.508 373.5,206.5C 372.903,206.265 372.57,205.765 372.5,205C 373.685,198.261 374.351,198.094 374.5,204.5 Z"/></g>
<g><path style="opacity:1" fill="#db9530" d="M 187.5,152.5 C 187.833,152.5 188.167,152.5 188.5,152.5C 196.158,177.788 203.824,203.122 211.5,228.5C 202.161,228.666 192.827,228.5 183.5,228C 182.167,224.333 180.833,220.667 179.5,217C 172.842,216.5 166.175,216.334 159.5,216.5C 157.708,215.691 155.708,215.191 153.5,215C 163.201,214.245 172.868,214.412 182.5,215.5C 183.167,219.167 183.833,222.833 184.5,226.5C 192.124,225.602 199.791,225.269 207.5,225.5C 207.521,221.553 206.188,218.22 203.5,215.5C 204.706,213.484 204.706,211.484 203.5,209.5C 202.522,209.977 201.689,210.643 201,211.5C 200.466,208.738 198.632,208.072 195.5,209.5C 193.68,209.351 192.18,208.684 191,207.5C 185.956,209.026 180.789,209.526 175.5,209C 182.167,208.333 182.167,207.667 175.5,207C 178.167,206.667 180.833,206.333 183.5,206C 175.536,204.763 167.536,203.93 159.5,203.5C 159.5,204.5 159.5,205.5 159.5,206.5C 162.247,206.187 164.914,206.52 167.5,207.5C 159.987,208.214 152.487,208.881 145,209.5C 140.802,207.943 136.802,208.276 133,210.5C 131.846,208.043 130.512,208.043 129,210.5C 127.264,215.044 125.93,219.71 125,224.5C 124.167,225.333 123.333,226.167 122.5,227C 131.494,227.5 140.494,227.666 149.5,227.5C 140.348,228.494 131.015,228.827 121.5,228.5C 121.751,224.751 122.417,221.085 123.5,217.5C 127.221,205.728 131.221,194.061 135.5,182.5C 135.721,183.735 136.388,184.735 137.5,185.5C 136.05,186.85 135.383,188.516 135.5,190.5C 141.516,190.499 147.516,190.165 153.5,189.5C 156.486,189.289 159.153,189.956 161.5,191.5C 161.5,192.5 161.5,193.5 161.5,194.5C 165.649,195.08 169.316,194.414 172.5,192.5C 173.404,193.209 173.737,194.209 173.5,195.5C 169.167,195.5 164.833,195.5 160.5,195.5C 160.5,196.5 160.5,197.5 160.5,198.5C 165.214,197.929 169.881,197.929 174.5,198.5C 175.42,196.119 175.42,193.786 174.5,191.5C 178.143,190.688 181.809,190.021 185.5,189.5C 188.082,191.057 190.249,190.723 192,188.5C 193.185,190.559 194.352,190.726 195.5,189C 193.364,178.621 190.531,168.454 187,158.5C 186.211,156.288 186.378,154.288 187.5,152.5 Z"/></g>
<g><path style="opacity:0.009" fill="#000000" d="M 17.5,201.5 C 19.9137,202.406 20.747,204.072 20,206.5C 19.4236,203.876 18.0902,203.209 16,204.5C 15.7613,203.212 16.2613,202.212 17.5,201.5 Z"/></g>
<g><path style="opacity:0.008" fill="#000000" d="M 374.5,204.5 C 374.416,207.988 374.583,211.654 375,215.5C 373.851,212.607 373.351,209.607 373.5,206.5C 374.338,206.158 374.672,205.492 374.5,204.5 Z"/></g>
<g><path style="opacity:0.027" fill="#000000" d="M 16.5,205.5 C 17.8333,206.167 17.8333,206.167 16.5,205.5 Z"/></g>
<g><path style="opacity:0.004" fill="#000000" d="M 21.5,205.5 C 22.8333,206.167 22.8333,206.167 21.5,205.5 Z"/></g>
<g><path style="opacity:1" fill="#d7782e" d="M 335.5,226.5 C 315.179,225.767 294.846,225.267 274.5,225C 272.392,224.64 270.392,223.973 268.5,223C 265.898,220.869 263.232,219.035 260.5,217.5C 259.167,216.833 258.167,215.833 257.5,214.5C 256.198,212.31 254.531,210.31 252.5,208.5C 253.631,207.396 254.465,207.729 255,209.5C 258.517,207.741 262.017,205.908 265.5,204C 269.909,204.412 274.243,204.579 278.5,204.5C 279.167,203.833 279.833,203.167 280.5,202.5C 296.799,203.818 313.133,203.818 329.5,202.5C 329.833,199.655 330.833,197.155 332.5,195C 331.833,194.333 331.167,193.667 330.5,193C 333.167,192.333 333.167,191.667 330.5,191C 332.866,190.438 335.199,190.604 337.5,191.5C 343.093,189.916 348.593,188.916 354,188.5C 355.561,190.973 357.561,192.973 360,194.5C 360.134,200.168 359.801,205.835 359,211.5C 354.468,221.682 346.634,226.682 335.5,226.5 Z"/></g>
<g><path style="opacity:1" fill="#da812e" d="M 159.5,216.5 C 157.167,216.5 154.833,216.5 152.5,216.5C 152.118,220.446 151.118,224.112 149.5,227.5C 140.494,227.666 131.494,227.5 122.5,227C 123.333,226.167 124.167,225.333 125,224.5C 125.93,219.71 127.264,215.044 129,210.5C 130.512,208.043 131.846,208.043 133,210.5C 136.802,208.276 140.802,207.943 145,209.5C 152.487,208.881 159.987,208.214 167.5,207.5C 164.914,206.52 162.247,206.187 159.5,206.5C 159.5,205.5 159.5,204.5 159.5,203.5C 167.536,203.93 175.536,204.763 183.5,206C 180.833,206.333 178.167,206.667 175.5,207C 182.167,207.667 182.167,208.333 175.5,209C 180.789,209.526 185.956,209.026 191,207.5C 192.18,208.684 193.68,209.351 195.5,209.5C 198.632,208.072 200.466,208.738 201,211.5C 201.689,210.643 202.522,209.977 203.5,209.5C 204.706,211.484 204.706,213.484 203.5,215.5C 206.188,218.22 207.521,221.553 207.5,225.5C 199.791,225.269 192.124,225.602 184.5,226.5C 183.833,222.833 183.167,219.167 182.5,215.5C 172.868,214.412 163.201,214.245 153.5,215C 155.708,215.191 157.708,215.691 159.5,216.5 Z"/></g>
<g><path style="opacity:0.008" fill="#000000" d="M 370.5,206.5 C 371.132,209.362 372.132,212.196 373.5,215C 372.906,215.464 372.239,215.631 371.5,215.5C 371.144,213.81 370.144,212.81 368.5,212.5C 370.081,210.858 370.747,208.858 370.5,206.5 Z"/></g>
<g><path style="opacity:1" fill="#d7782d" d="M 248.5,207.5 C 248.5,214.5 248.5,221.5 248.5,228.5C 246.833,228.5 245.167,228.5 243.5,228.5C 243.5,228.167 243.5,227.833 243.5,227.5C 244.873,227.657 246.207,227.49 247.5,227C 238.559,225.654 229.559,225.154 220.5,225.5C 220.5,221.833 220.5,218.167 220.5,214.5C 221.317,212.031 221.817,209.365 222,206.5C 222.333,207.833 222.667,209.167 223,210.5C 228.605,208.47 234.272,208.47 240,210.5C 241.016,209.366 241.683,209.699 242,211.5C 243.453,208.702 244.453,205.702 245,202.5C 245.561,201.978 246.228,201.645 247,201.5C 250.754,202.9 251.254,204.9 248.5,207.5 Z"/></g>
<g><path style="opacity:0.024" fill="#a9d500" d="M 23.5,213.5 C 24.8333,214.167 24.8333,214.167 23.5,213.5 Z"/></g>
<g><path style="opacity:0.012" fill="#000000" d="M 25.5,216.5 C 24.7611,216.631 24.0944,216.464 23.5,216C 24.4368,215.308 25.1034,215.475 25.5,216.5 Z"/></g>
<g><path style="opacity:0.016" fill="#000000" d="M 371.5,215.5 C 370.833,216.167 370.833,216.167 371.5,215.5 Z"/></g>
<g><path style="opacity:0.027" fill="#b00d92" d="M 367.5,215.5 C 368.167,215.5 368.5,215.833 368.5,216.5C 367.167,217.167 367.167,217.833 368.5,218.5C 368.5,218.833 368.5,219.167 368.5,219.5C 368.167,219.5 367.833,219.5 367.5,219.5C 366.363,220.789 365.03,221.789 363.5,222.5C 363.263,221.209 363.596,220.209 364.5,219.5C 365.167,219.5 365.5,219.167 365.5,218.5C 365.427,216.973 366.094,215.973 367.5,215.5 Z"/></g>
<g><path style="opacity:0.021" fill="#000000" d="M 368.5,216.5 C 369.167,216.5 369.833,216.5 370.5,216.5C 370.167,217.5 369.5,218.167 368.5,218.5C 368.5,217.833 368.5,217.167 368.5,216.5 Z"/></g>
<g><path style="opacity:0.011" fill="#000000" d="M 373.5,216.5 C 375.975,216.747 375.975,217.413 373.5,218.5C 372.537,218.03 372.537,217.363 373.5,216.5 Z"/></g>
<g><path style="opacity:0.008" fill="#000000" d="M 25.5,217.5 C 25.762,218.978 25.4287,220.311 24.5,221.5C 24.4361,220.635 24.1027,219.635 23.5,218.5C 23.9569,217.702 24.6236,217.369 25.5,217.5 Z"/></g>
<g><path style="opacity:1" fill="#d6792e" d="M 111.5,204.5 C 109.706,211.471 108.039,218.471 106.5,225.5C 98.7767,225.2 91.1101,225.533 83.5,226.5C 81.1097,216.927 78.1097,207.594 74.5,198.5C 73.6143,199.325 73.281,200.325 73.5,201.5C 72.8826,201.389 72.3826,201.056 72,200.5C 69.4593,209.953 66.626,219.286 63.5,228.5C 54.4355,229.136 45.7688,228.47 37.5,226.5C 38.1386,225.903 38.472,225.07 38.5,224C 37.3881,219.504 36.3881,215.004 35.5,210.5C 35.3433,209.127 35.51,207.793 36,206.5C 37.5298,208.226 38.5298,210.226 39,212.5C 47.1559,211.047 55.3226,210.714 63.5,211.5C 63.3505,212.552 63.5172,213.552 64,214.5C 65.789,207.755 67.789,201.088 70,194.5C 70.5831,192.998 71.4164,191.665 72.5,190.5C 75.0434,193.531 77.3768,196.697 79.5,200C 85.3406,201.296 91.1739,201.463 97,200.5C 101.566,202.649 106.399,203.983 111.5,204.5 Z"/></g>
<g><path style="opacity:0.016" fill="#000000" d="M 371.5,219.5 C 370.833,218.167 370.833,218.167 371.5,219.5 Z"/></g>
<g><path style="opacity:0.018" fill="#000000" d="M 371.5,220.5 C 371.5,220.167 371.5,219.833 371.5,219.5C 372.833,219.5 373.5,220.167 373.5,221.5C 373.167,221.5 372.833,221.5 372.5,221.5C 372.5,220.833 372.167,220.5 371.5,220.5 Z"/></g>
<g><path style="opacity:0.016" fill="#000000" d="M 374.5,221.5 C 374.369,220.761 374.536,220.094 375,219.5C 375.692,220.437 375.525,221.103 374.5,221.5 Z"/></g>
<g><path style="opacity:0.004" fill="#000000" d="M 24.5,222.5 C 25.8333,223.167 25.8333,223.167 24.5,222.5 Z"/></g>
<g><path style="opacity:0.366" fill="#26261c" d="M 367.5,219.5 C 367.833,220.833 368.167,220.833 368.5,219.5C 369.391,220.11 370.391,220.443 371.5,220.5C 372.167,220.5 372.5,220.833 372.5,221.5C 372.833,222.833 373.167,222.833 373.5,221.5C 373.833,221.5 374.167,221.5 374.5,221.5C 374.37,224.375 374.703,227.375 375.5,230.5C 372.15,230.665 368.817,230.498 365.5,230C 366.167,229.667 366.833,229.333 367.5,229C 364.81,227.251 363.476,225.085 363.5,222.5C 365.03,221.789 366.363,220.789 367.5,219.5 Z"/></g>
<g><path style="opacity:1" fill="#f2cb3d" d="M 260.5,217.5 C 263.232,219.035 265.898,220.869 268.5,223C 270.392,223.973 272.392,224.64 274.5,225C 294.846,225.267 315.179,225.767 335.5,226.5C 315.674,227.497 295.674,227.83 275.5,227.5C 268.913,226.585 263.913,223.251 260.5,217.5 Z"/></g>
<g><path style="opacity:0.01" fill="#000000" d="M 362.5,228.5 C 363.525,228.897 363.692,229.563 363,230.5C 362.536,229.906 362.369,229.239 362.5,228.5 Z"/></g>
<g><path style="opacity:0.008" fill="#000000" d="M 23.5,229.5 C 24.8333,230.167 24.8333,230.167 23.5,229.5 Z"/></g>
<g><path style="opacity:0.008" fill="#000000" d="M 25.5,229.5 C 26.8333,230.167 26.8333,230.167 25.5,229.5 Z"/></g>
<g><path style="opacity:0.035" fill="#682aee" d="M 358.5,230.5 C 357.5,230.5 356.5,230.5 355.5,230.5C 356.5,227.833 357.5,227.833 358.5,230.5 Z"/></g>
<g><path style="opacity:0.02" fill="#000000" d="M 33.5,234.5 C 33.5,235.167 33.5,235.833 33.5,236.5C 32.1667,235.833 32.1667,235.167 33.5,234.5 Z"/></g>
<g><path style="opacity:0.004" fill="#000000" d="M 37.5,235.5 C 36.8333,234.167 36.8333,234.167 37.5,235.5 Z"/></g>
<g><path style="opacity:0.008" fill="#000000" d="M 344.5,234.5 C 345.5,234.5 346.5,234.5 347.5,234.5C 347.5,234.833 347.5,235.167 347.5,235.5C 346.069,235.881 345.236,236.881 345,238.5C 344.51,237.207 344.343,235.873 344.5,234.5 Z"/></g>
<g><path style="opacity:0.009" fill="#000000" d="M 350.5,234.5 C 351.043,234.56 351.376,234.893 351.5,235.5C 350.624,236.251 349.624,236.751 348.5,237C 349.696,237.654 349.696,238.154 348.5,238.5C 347.614,237.675 347.281,236.675 347.5,235.5C 348.791,235.737 349.791,235.404 350.5,234.5 Z"/></g>
<g><path style="opacity:0.015" fill="#000000" d="M 36.5,237.5 C 35.4168,237.539 34.4168,237.873 33.5,238.5C 32.537,238.03 32.537,237.363 33.5,236.5C 32.537,237.363 32.537,238.03 33.5,238.5C 34.4168,237.873 35.4168,237.539 36.5,237.5 Z"/></g>
<g><path style="opacity:0.008" fill="#000000" d="M 37.5,235.5 C 136.931,236.164 236.264,236.831 335.5,237.5C 236.167,237.5 136.833,237.5 37.5,237.5C 37.5,236.833 37.5,236.167 37.5,235.5 Z"/></g>
<g><path style="opacity:0.004" fill="#000000" d="M 36.5,237.5 C 36.8333,237.5 37.1667,237.5 37.5,237.5C 37.3147,238.17 36.9813,238.17 36.5,237.5 Z"/></g>
<g><path style="opacity:0.004" fill="#000000" d="M 335.5,237.5 C 336.239,237.369 336.906,237.536 337.5,238C 336.563,238.692 335.897,238.525 335.5,237.5 Z"/></g>
<g><path style="opacity:0.016" fill="#000000" d="M 350.5,237.5 C 351.833,238.167 351.833,238.167 350.5,237.5 Z"/></g>
</svg>
