<?xml version="1.0" standalone="no"?>
<svg xmlns:xlink="http://www.w3.org/1999/xlink" id="wave" style="transform:rotate(180deg); transition: 0.3s" viewBox="0 0 1440 330" version="1.1" xmlns="http://www.w3.org/2000/svg"><defs><linearGradient id="sw-gradient-0" x1="0" x2="0" y1="1" y2="0"><stop stop-color="rgba(1, 1, 4, 1)" offset="0%"/><stop stop-color="rgba(64, 28, 30, 1)" offset="100%"/></linearGradient></defs><path style="transform:translate(0, 0px); opacity:1" fill="url(#sw-gradient-0)" d="M0,198L360,231L720,264L1080,0L1440,99L1800,66L2160,231L2520,264L2880,0L3240,297L3600,99L3960,0L4320,0L4680,231L5040,165L5400,231L5760,99L6120,0L6480,198L6840,66L7200,231L7560,297L7920,231L8280,264L8640,99L8640,330L8280,330L7920,330L7560,330L7200,330L6840,330L6480,330L6120,330L5760,330L5400,330L5040,330L4680,330L4320,330L3960,330L3600,330L3240,330L2880,330L2520,330L2160,330L1800,330L1440,330L1080,330L720,330L360,330L0,330Z"/><defs><linearGradient id="sw-gradient-1" x1="0" x2="0" y1="1" y2="0"><stop stop-color="rgba(1, 1, 4, 1)" offset="0%"/><stop stop-color="rgba(64, 28, 30, 1)" offset="100%"/></linearGradient></defs><path style="transform:translate(0, 50px); opacity:0.9" fill="url(#sw-gradient-1)" d="M0,297L360,165L720,33L1080,99L1440,33L1800,231L2160,0L2520,0L2880,198L3240,132L3600,264L3960,297L4320,132L4680,33L5040,33L5400,99L5760,99L6120,66L6480,231L6840,297L7200,264L7560,264L7920,33L8280,66L8640,231L8640,330L8280,330L7920,330L7560,330L7200,330L6840,330L6480,330L6120,330L5760,330L5400,330L5040,330L4680,330L4320,330L3960,330L3600,330L3240,330L2880,330L2520,330L2160,330L1800,330L1440,330L1080,330L720,330L360,330L0,330Z"/><defs><linearGradient id="sw-gradient-2" x1="0" x2="0" y1="1" y2="0"><stop stop-color="rgba(1, 1, 4, 1)" offset="0%"/><stop stop-color="rgba(64, 28, 30, 1)" offset="100%"/></linearGradient></defs><path style="transform:translate(0, 100px); opacity:0.8" fill="url(#sw-gradient-2)" d="M0,99L360,198L720,99L1080,99L1440,198L1800,132L2160,165L2520,165L2880,0L3240,99L3600,264L3960,66L4320,198L4680,165L5040,66L5400,66L5760,66L6120,165L6480,99L6840,264L7200,297L7560,33L7920,132L8280,264L8640,165L8640,330L8280,330L7920,330L7560,330L7200,330L6840,330L6480,330L6120,330L5760,330L5400,330L5040,330L4680,330L4320,330L3960,330L3600,330L3240,330L2880,330L2520,330L2160,330L1800,330L1440,330L1080,330L720,330L360,330L0,330Z"/><defs><linearGradient id="sw-gradient-3" x1="0" x2="0" y1="1" y2="0"><stop stop-color="rgba(1, 1, 4, 1)" offset="0%"/><stop stop-color="rgba(64, 28, 30, 1)" offset="100%"/></linearGradient></defs><path style="transform:translate(0, 150px); opacity:0.7" fill="url(#sw-gradient-3)" d="M0,198L360,132L720,165L1080,99L1440,132L1800,297L2160,132L2520,198L2880,33L3240,132L3600,198L3960,264L4320,33L4680,165L5040,33L5400,0L5760,231L6120,231L6480,297L6840,66L7200,132L7560,264L7920,231L8280,165L8640,165L8640,330L8280,330L7920,330L7560,330L7200,330L6840,330L6480,330L6120,330L5760,330L5400,330L5040,330L4680,330L4320,330L3960,330L3600,330L3240,330L2880,330L2520,330L2160,330L1800,330L1440,330L1080,330L720,330L360,330L0,330Z"/></svg>